<svg width="70" height="70" viewBox="0 0 70 70" fill="none" xmlns="http://www.w3.org/2000/svg">
<path d="M65.3935 10.1824H56.6595C56.0925 10.1824 55.6327 10.6421 55.6327 11.2092C55.6327 11.7763 56.0925 12.236 56.6595 12.236H65.3935C66.7655 12.236 67.8818 13.3523 67.8818 14.7243V50.9799H2.11861V14.7243C2.11861 13.3523 3.23485 12.236 4.60684 12.236H13.2039C13.771 12.236 14.2307 11.7763 14.2307 11.2092C14.2307 10.6421 13.771 10.1824 13.2039 10.1824H4.60684C2.10245 10.1824 0.0649414 12.2199 0.0649414 14.7243V54.2864C0.0649414 56.7908 2.10245 58.8283 4.60684 58.8283H21.8477V63.4517L19.0582 67.3415C18.6895 67.8556 18.64 68.5247 18.929 69.0875C19.218 69.6503 19.7904 70 20.4232 70H49.4402C50.0729 70 50.6454 69.6503 50.9345 69.0875C51.2235 68.5247 51.1739 67.8556 50.8052 67.3415L48.1394 63.6239C48.1198 63.4971 48.0774 63.378 48.0159 63.271V58.8283H65.3937C67.898 58.8283 69.9356 56.7908 69.9356 54.2864V14.7243C69.9354 12.2199 67.8979 10.1824 65.3935 10.1824V10.1824ZM65.3935 56.7745H42.4961C41.929 56.7745 41.4692 57.2343 41.4692 57.8013C41.4692 58.3684 41.929 58.8282 42.4961 58.8282H45.9621V62.7548H44.1509C43.5838 62.7548 43.1241 63.2145 43.1241 63.7816C43.1241 64.3487 43.5838 64.8085 44.1509 64.8085H46.4617L48.7117 67.9462H21.1515L23.4015 64.8085H25.8492C26.4163 64.8085 26.876 64.3487 26.876 63.7816C26.876 63.2145 26.4163 62.7548 25.8492 62.7548H23.9011V58.8282H38.1198C38.6869 58.8282 39.1467 58.3684 39.1467 57.8013C39.1467 57.2343 38.6869 56.7745 38.1198 56.7745H4.60684C3.23485 56.7745 2.11861 55.6583 2.11861 54.2863V53.0334H67.8818V54.2863C67.8818 55.6584 66.7655 56.7745 65.3935 56.7745V56.7745Z" fill="black"/>
<path d="M17.1768 12.3335L34.1159 21.4192C34.3715 21.5563 34.6517 21.6249 34.932 21.6249C35.2121 21.6249 35.4924 21.5564 35.7477 21.4194L52.6869 12.3336C53.2484 12.0324 53.5971 11.4496 53.5971 10.8124C53.5971 10.1754 53.2484 9.59241 52.6869 9.29134L35.7476 0.2055C35.2369 -0.0684594 34.6267 -0.0684594 34.116 0.2055L17.1768 9.29121C16.6153 9.59241 16.2666 10.1752 16.2666 10.8123C16.2665 11.4495 16.6153 12.0324 17.1768 12.3335V12.3335ZM34.9319 2.0983L51.1782 10.8124L34.9319 19.5264L18.6856 10.8123L34.9319 2.0983Z" fill="black"/>
<path d="M52.6871 21.687L46.6258 18.4358C46.126 18.1679 45.5035 18.3556 45.2356 18.8553C44.9675 19.355 45.1553 19.9774 45.6551 20.2455L51.1783 23.2081L34.932 31.9222L30.8971 29.7579C30.3977 29.4899 29.7751 29.6777 29.5069 30.1774C29.2389 30.6772 29.4267 31.2996 29.9264 31.5676L34.116 33.8149C34.3717 33.9519 34.6519 34.0205 34.9322 34.0205C35.2123 34.0205 35.4925 33.9521 35.7479 33.815L52.6871 24.7293C53.2486 24.4281 53.5974 23.8452 53.5973 23.2081C53.5973 22.5709 53.2484 21.9881 52.6871 21.687Z" fill="black"/>
<path d="M17.1767 24.7293L25.9486 29.4344C26.103 29.5173 26.2692 29.5566 26.4331 29.5566C26.7992 29.5566 27.1537 29.3601 27.3389 29.0148C27.607 28.5151 27.4191 27.8927 26.9194 27.6246L18.6857 23.2083L24.209 20.2456C24.7087 19.9776 24.8965 19.3552 24.6285 18.8554C24.3604 18.3557 23.738 18.168 23.2383 18.4359L17.1769 21.6872C16.6155 21.9882 16.2666 22.5712 16.2666 23.2083C16.2663 23.8452 16.6152 24.4281 17.1767 24.7293V24.7293Z" fill="black"/>
<path d="M44.8443 40.1663C45.0296 40.5116 45.3839 40.7081 45.7501 40.7081C45.9139 40.7081 46.0802 40.6688 46.2347 40.586L52.6869 37.1251C53.2484 36.8239 53.5971 36.2411 53.5971 35.6041C53.5971 34.967 53.2484 34.384 52.6869 34.0828L46.6254 30.8316C46.1261 30.5637 45.5033 30.7514 45.2352 31.2511C44.9671 31.7508 45.155 32.3732 45.6547 32.6413L51.1781 35.6039L45.264 38.776C44.7641 39.0441 44.5763 39.6666 44.8443 40.1663V40.1663Z" fill="black"/>
<path d="M17.1768 37.125L34.1161 46.2108C34.3715 46.3477 34.6517 46.4163 34.9319 46.4163C35.212 46.4163 35.4922 46.3479 35.7477 46.2108L42.3375 42.6762C42.8373 42.4081 43.0251 41.7857 42.757 41.286C42.489 40.7863 41.8666 40.5986 41.3668 40.8665L34.9319 44.318L18.6856 35.6039L24.2088 32.6413C24.7086 32.3732 24.8964 31.7508 24.6283 31.2511C24.3603 30.7514 23.7379 30.5637 23.2381 30.8316L17.1767 34.0828C16.6152 34.384 16.2665 34.967 16.2666 35.6041C16.2665 36.2411 16.6153 36.8239 17.1768 37.125V37.125Z" fill="black"/>
</svg>
