<svg width="70" height="70" viewBox="0 0 70 70" fill="none" xmlns="http://www.w3.org/2000/svg">
<path d="M34.8432 46.2579L28.6854 52.5H24.1844L28.8163 47.8046C28.9165 47.7031 28.996 47.5825 29.0502 47.4498C29.1044 47.3171 29.1323 47.1749 29.1323 47.0313C29.1323 46.8876 29.1044 46.7454 29.0502 46.6127C28.996 46.48 28.9165 46.3594 28.8163 46.2579C28.291 45.7254 27.6674 45.303 26.9811 45.0148C26.2949 44.7266 25.5593 44.5783 24.8164 44.5783C24.0736 44.5783 23.338 44.7266 22.6517 45.0148C21.9654 45.303 21.3419 45.7254 20.8166 46.2579L17.8957 49.2188H14.0267C13.8851 49.2187 13.7447 49.247 13.6138 49.302C13.4829 49.357 13.364 49.4375 13.2638 49.5391L8.59848 54.2684C8.39446 54.1586 8.1611 54.1181 7.93267 54.1528C7.70425 54.1874 7.49283 54.2955 7.32948 54.461L2.47412 59.3829L3.99998 60.9296L8.09241 56.7812L15.1982 63.9844L13.2638 65.9454L14.7897 67.4921L17.4871 64.7578C17.5873 64.6562 17.6668 64.5356 17.721 64.4029C17.7752 64.2702 17.8032 64.128 17.8032 63.9844C17.8032 63.8407 17.7752 63.6985 17.721 63.5658C17.6668 63.4331 17.5873 63.3126 17.4871 63.211L16.6316 62.3438L18.7896 60.1563H30.2113C30.353 60.1563 30.4933 60.128 30.6242 60.073C30.7551 60.018 30.874 59.9375 30.9742 59.8359L42.8429 47.8046C42.9431 47.7031 43.0226 47.5825 43.0768 47.4498C43.131 47.3171 43.1589 47.1749 43.1589 47.0313C43.1589 46.8876 43.131 46.7454 43.0768 46.6127C43.0226 46.48 42.9431 46.3594 42.8429 46.2579C41.7812 45.1841 40.3428 44.581 38.843 44.581C37.3433 44.581 35.9048 45.1841 34.8432 46.2579V46.2579ZM29.7643 57.9688H18.3426C18.2009 57.9687 18.0606 57.997 17.9297 58.052C17.7988 58.107 17.6799 58.1875 17.5797 58.2891L15.1057 60.797L10.1578 55.7813L14.4737 51.4063H18.3426C18.4843 51.4063 18.6246 51.378 18.7555 51.323C18.8864 51.268 19.0054 51.1875 19.1056 51.0859L22.3425 47.8046C22.8656 47.275 23.5406 46.9267 24.2708 46.8095C25.0011 46.6923 25.7492 46.8123 26.4082 47.1521L19.7376 53.9141L21.2635 55.4609L22.0264 54.6875H29.1323C29.274 54.6875 29.4143 54.6592 29.5452 54.6042C29.6761 54.5493 29.7951 54.4687 29.8952 54.3671L36.3691 47.8046C36.8923 47.2755 37.5671 46.9276 38.2972 46.8106C39.0272 46.6936 39.775 46.8135 40.4337 47.1533L29.7643 57.9688Z" fill="black"/>
<path d="M18.3423 28.4375C18.3413 29.642 18.6677 30.8236 19.2855 31.8525C19.9034 32.8814 20.7889 33.7179 21.8449 34.2702C22.9009 34.8224 24.0866 35.0692 25.2718 34.9833C26.4571 34.8975 27.5961 34.4823 28.5639 33.7834L31.922 37.1875L29.448 39.6954C29.3478 39.7969 29.2683 39.9175 29.2141 40.0502C29.1599 40.1829 29.132 40.3251 29.132 40.4688C29.132 40.6124 29.1599 40.7546 29.2141 40.8873C29.2683 41.02 29.3478 41.1406 29.448 41.2421L32.6849 44.5234C32.7851 44.625 32.9041 44.7055 33.035 44.7605C33.1659 44.8155 33.3062 44.8438 33.4479 44.8438C33.5896 44.8438 33.7299 44.8155 33.8608 44.7605C33.9917 44.7055 34.1106 44.625 34.2108 44.5234L36.6848 42.0155L38.0798 43.4296L39.6056 41.8829L30.0898 32.2366C30.6799 31.395 31.0657 30.4241 31.2158 29.4028C31.366 28.3816 31.2762 27.3388 30.9538 26.3593C30.6314 25.3799 30.0855 24.4913 29.3605 23.7661C28.6355 23.0408 27.7519 22.4992 26.7815 22.1854C25.8111 21.8715 24.7813 21.7943 23.7759 21.96C22.7705 22.1257 21.8179 22.5296 20.9955 23.1388C20.1732 23.7481 19.5042 24.5455 19.0432 25.4662C18.5822 26.3869 18.342 27.405 18.3423 28.4375V28.4375ZM33.4479 42.2032L31.7368 40.4688L33.4479 38.7343L35.1589 40.4688L33.4479 42.2032ZM23.7371 26.25C23.9505 26.25 24.1591 26.3142 24.3366 26.4343C24.514 26.5545 24.6523 26.7253 24.734 26.9252C24.8156 27.1251 24.837 27.345 24.7954 27.5571C24.7537 27.7693 24.651 27.9642 24.5001 28.1172C24.3492 28.2701 24.1569 28.3743 23.9476 28.4165C23.7383 28.4587 23.5214 28.437 23.3242 28.3542C23.1271 28.2715 22.9586 28.1313 22.84 27.9514C22.7214 27.7715 22.6582 27.5601 22.6582 27.3438C22.6585 27.0538 22.7723 26.7758 22.9746 26.5707C23.1768 26.3657 23.4511 26.2503 23.7371 26.25ZM20.5397 27.8546C20.6326 28.4526 20.887 29.0128 21.2746 29.4733C21.6621 29.9339 22.1678 30.2767 22.7357 30.464C23.3036 30.6513 23.9115 30.6757 24.4922 30.5345C25.0729 30.3933 25.6037 30.092 26.026 29.6639C26.4482 29.2359 26.7455 28.6978 26.8848 28.1091C27.0241 27.5205 27 26.9042 26.8152 26.3286C26.6305 25.7529 26.2923 25.2403 25.8379 24.8474C25.3836 24.4546 24.831 24.1967 24.2411 24.1025C25.1378 23.9788 26.0502 24.1435 26.8497 24.5734C27.6492 25.0032 28.2955 25.6765 28.6975 26.4984C29.0995 27.3203 29.2369 28.2494 29.0905 29.1546C28.944 30.0599 28.521 30.8958 27.8811 31.5445C27.2412 32.1932 26.4166 32.6219 25.5236 32.7704C24.6305 32.9189 23.714 32.7795 22.9032 32.372C22.0924 31.9645 21.4282 31.3094 21.0042 30.4989C20.5802 29.6885 20.4177 28.7636 20.5397 27.8546V27.8546Z" fill="black"/>
<path d="M41.7637 37.5079L40.2378 39.0546L46.7116 45.6171C46.8118 45.7187 46.9307 45.7993 47.0616 45.8542C47.1925 45.9092 47.3329 45.9375 47.4745 45.9375H66.896V43.75H47.9215L41.7637 37.5079Z" fill="black"/>
<path d="M42.3958 15.6329L32.6851 25.4766L34.2109 27.0234L43.6056 17.5H66.8961V15.3125H43.1587C43.017 15.3125 42.8767 15.3408 42.7458 15.3958C42.6149 15.4507 42.496 15.5313 42.3958 15.6329V15.6329Z" fill="black"/>
<path d="M20.8162 20.4609L22.3421 18.9141L20.1842 16.7266C20.084 16.625 19.965 16.5445 19.8341 16.4895C19.7032 16.4345 19.5629 16.4062 19.4212 16.4063H2.15771V18.5938H18.9743L20.8162 20.4609Z" fill="black"/>
<path d="M62.5801 14.2188H47.4746C46.3303 14.2174 45.2333 13.7561 44.4242 12.9359C43.6151 12.1157 43.16 11.0037 43.1587 9.84375V6.5625C43.16 5.40258 43.6151 4.29054 44.4242 3.47035C45.2333 2.65016 46.3303 2.1888 47.4746 2.1875H62.5801C63.7244 2.1888 64.8214 2.65016 65.6305 3.47035C66.4396 4.29054 66.8947 5.40258 66.896 6.5625V9.84375C66.8947 11.0037 66.4396 12.1157 65.6305 12.9359C64.8214 13.7561 63.7244 14.2174 62.5801 14.2188V14.2188ZM47.4746 4.375C46.9025 4.37566 46.354 4.60634 45.9494 5.01644C45.5448 5.42653 45.3173 5.98254 45.3166 6.5625V9.84375C45.3173 10.4237 45.5448 10.9797 45.9494 11.3898C46.354 11.7999 46.9025 12.0306 47.4746 12.0312H62.5801C63.1523 12.0306 63.7008 11.7999 64.1053 11.3898C64.5099 10.9797 64.7374 10.4237 64.7381 9.84375V6.5625C64.7374 5.98254 64.5099 5.42653 64.1053 5.01644C63.7008 4.60634 63.1523 4.37566 62.5801 4.375H47.4746Z" fill="black"/>
<path d="M48.5537 5.46875H52.8696V7.65625H48.5537V5.46875Z" fill="black"/>
<path d="M55.0273 5.46875H63.6591V7.65625H55.0273V5.46875Z" fill="black"/>
<path d="M46.3955 8.75H55.0273V10.9375H46.3955V8.75Z" fill="black"/>
<path d="M57.1855 8.75H61.5014V10.9375H57.1855V8.75Z" fill="black"/>
<path d="M62.5802 60.1562H51.7905C50.6462 60.1549 49.5492 59.6936 48.7401 58.8734C47.931 58.0532 47.4759 56.9412 47.4746 55.7812V51.4062C47.4759 50.2463 47.931 49.1343 48.7401 48.3141C49.5492 47.4939 50.6462 47.0326 51.7905 47.0312H62.5802C63.7244 47.0326 64.8214 47.4939 65.6306 48.3141C66.4397 49.1343 66.8948 50.2463 66.8961 51.4062V55.7812C66.8948 56.9412 66.4397 58.0532 65.6306 58.8734C64.8214 59.6936 63.7244 60.1549 62.5802 60.1562V60.1562ZM51.7905 49.2188C51.2184 49.2194 50.6699 49.4501 50.2653 49.8602C49.8608 50.2703 49.6332 50.8263 49.6325 51.4062V55.7812C49.6332 56.3612 49.8608 56.9172 50.2653 57.3273C50.6699 57.7374 51.2184 57.9681 51.7905 57.9688H62.5802C63.1523 57.9681 63.7008 57.7374 64.1054 57.3273C64.5099 56.9172 64.7375 56.3612 64.7381 55.7812V51.4062C64.7375 50.8263 64.5099 50.2703 64.1054 49.8602C63.7008 49.4501 63.1523 49.2194 62.5802 49.2188H51.7905Z" fill="black"/>
<path d="M52.8696 50.3125H59.3434V52.5H52.8696V50.3125Z" fill="black"/>
<path d="M61.5015 50.3125H63.6594V52.5H61.5015V50.3125Z" fill="black"/>
<path d="M50.7114 54.6875H52.8694V56.875H50.7114V54.6875Z" fill="black"/>
<path d="M55.0273 54.6875H61.5012V56.875H55.0273V54.6875Z" fill="black"/>
<path d="M15.1054 15.3125H6.47359C5.32935 15.3112 4.23233 14.8498 3.42323 14.0297C2.61412 13.2095 2.159 12.0974 2.15771 10.9375V6.5625C2.159 5.40258 2.61412 4.29054 3.42323 3.47035C4.23233 2.65016 5.32935 2.1888 6.47359 2.1875H15.1054C16.2496 2.1888 17.3466 2.65016 18.1557 3.47035C18.9648 4.29054 19.4199 5.40258 19.4212 6.5625V10.9375C19.4199 12.0974 18.9648 13.2095 18.1557 14.0297C17.3466 14.8498 16.2496 15.3112 15.1054 15.3125ZM6.47359 4.375C5.90147 4.37566 5.35297 4.60634 4.94842 5.01644C4.54387 5.42653 4.31631 5.98254 4.31565 6.5625V10.9375C4.31631 11.5175 4.54387 12.0735 4.94842 12.4836C5.35297 12.8937 5.90147 13.1243 6.47359 13.125H15.1054C15.6775 13.1243 16.226 12.8937 16.6305 12.4836C17.0351 12.0735 17.2626 11.5175 17.2633 10.9375V6.5625C17.2626 5.98254 17.0351 5.42653 16.6305 5.01644C16.226 4.60634 15.6775 4.37566 15.1054 4.375H6.47359Z" fill="black"/>
<path d="M7.55273 5.46875H11.8686V7.65625H7.55273V5.46875Z" fill="black"/>
<path d="M14.0264 5.46875H16.1843V7.65625H14.0264V5.46875Z" fill="black"/>
<path d="M5.39502 9.84375H7.55296V12.0312H5.39502V9.84375Z" fill="black"/>
<path d="M9.71094 9.84375H14.0268V12.0312H9.71094V9.84375Z" fill="black"/>
</svg>
