<svg width="70" height="70" viewBox="0 0 70 70" fill="none" xmlns="http://www.w3.org/2000/svg">
<g clip-path="url(#clip0)">
<path d="M3.10503 33.8276H5.21575V25.8789C5.21575 24.0807 6.66507 22.6081 8.44313 22.6081H11.6743C12.1101 21.3563 13.1502 20.0929 14.2018 19.3216C14.7294 18.934 15.3107 18.6163 15.9301 18.3839C14.9589 17.2174 14.37 15.7097 14.37 14.0704V9.82283V7.98971C14.37 6.83484 14.8365 5.78457 15.5898 5.02113C16.3394 4.26152 17.3757 3.78875 18.5153 3.78875H26.5796C27.1379 3.78875 27.5929 4.2499 27.5929 4.81578V9.82297V14.0705C27.5929 15.7098 27.0041 17.2175 26.033 18.384C27.0883 18.7831 28.0327 19.4227 28.7938 20.2364C30.0366 21.5657 30.8014 23.3522 30.8014 25.3094V33.8278H38.2693V25.3094C38.2693 23.3717 39.0148 21.6006 40.2348 20.2791C41.0033 19.442 41.9631 18.7869 43.0377 18.384C42.0665 17.2175 41.4776 15.7098 41.4776 14.0705V7.98971C41.4776 6.83484 41.9441 5.78457 42.6936 5.02113C43.4431 4.26152 44.4832 3.78875 45.6227 3.78875H50.5515C51.695 3.78875 52.7312 4.26152 53.4808 5.02113C54.2303 5.78457 54.6968 6.83484 54.6968 7.98971V14.0704C54.6968 15.7097 54.1079 17.2174 53.1367 18.3839C53.76 18.6164 54.3451 18.9342 54.8727 19.3216C55.9243 20.0929 56.9606 21.3601 57.3964 22.6081H60.6276C61.5147 22.6081 62.3216 22.9763 62.9066 23.5692C63.4917 24.1622 63.855 24.9799 63.855 25.8791V33.8278H65.9619C67.6712 33.8278 69.0669 35.2423 69.0669 36.9746V40.1177C69.0669 41.85 67.6712 43.2645 65.9619 43.2645H63.855V63.0606C63.855 64.7968 62.4591 66.2112 60.7499 66.2112H8.32091C6.61151 66.2112 5.21575 64.7968 5.21575 63.0606V43.2645H3.10503C1.39577 43.2645 0 41.85 0 40.1177V36.9746C0 35.2423 1.39577 33.8276 3.10503 33.8276V33.8276ZM16.3928 8.7958H25.5663V5.83885H18.5153C17.934 5.83885 17.4025 6.08303 17.0199 6.47062C16.6339 6.86205 16.3929 7.40072 16.3929 7.98984V8.7958H16.3928ZM25.5663 10.846H16.3928V14.0704C16.3928 15.3493 16.9091 16.5081 17.7428 17.3529C18.5764 18.1978 19.7196 18.7209 20.9816 18.7209C22.2396 18.7209 23.3868 18.1977 24.2204 17.3529C25.0502 16.5081 25.5664 15.3493 25.5664 14.0704V10.846H25.5663ZM52.6739 12.311C51.1864 12.5357 48.7353 12.5241 46.7085 10.7026C46.0011 11.1211 44.8692 11.5979 43.5004 11.4738V14.0704C43.5004 15.3493 44.0165 16.5081 44.8502 17.3529C45.6799 18.1978 46.8271 18.7209 48.089 18.7209C49.3471 18.7209 50.4942 18.1977 51.3238 17.3529C52.1576 16.5081 52.6739 15.3493 52.6739 14.0704V12.311ZM43.5004 9.41596C44.4602 9.5632 45.439 9.23768 46.1657 8.59811C46.5861 8.22992 47.2249 8.27654 47.588 8.70283C49.2437 10.6328 51.5457 10.4739 52.6739 10.2453V7.98971C52.6739 7.40059 52.4367 6.86191 52.0506 6.47049C51.6644 6.08303 51.1327 5.83871 50.5515 5.83871H45.6227C45.0414 5.83871 44.51 6.08289 44.1238 6.47049C43.7413 6.86191 43.5005 7.40059 43.5005 7.98971V9.41596H43.5004ZM17.9111 19.9999C16.9741 20.0967 16.1098 20.4456 15.3795 20.9765C14.7869 21.4106 14.2859 21.9687 13.9111 22.6081H20.6717C21.5627 22.6081 22.3695 22.9763 22.9545 23.5692C23.5358 24.1622 23.8991 24.9799 23.8991 25.8791V33.8278H28.7783V25.3094C28.7783 23.8949 28.2276 22.6004 27.3329 21.647C26.4877 20.7401 25.333 20.1317 24.0521 19.9999C23.1342 20.4921 22.0866 20.7711 20.9814 20.7711C19.8765 20.7711 18.8288 20.4921 17.9111 19.9999V19.9999ZM45.0185 19.9999C43.7222 20.1355 42.5596 20.7517 41.7107 21.6702C40.8312 22.6275 40.292 23.9064 40.292 25.3092V33.8276H45.1676V31.3511C45.1676 30.7854 45.6226 30.3241 46.1809 30.3241C46.7392 30.3241 47.1903 30.7852 47.1903 31.3511V33.8276H61.8318V25.8789C61.8318 25.5456 61.6942 25.2395 61.4762 25.0186C61.2582 24.7976 60.9562 24.6582 60.6273 24.6582H48.3947C48.0658 24.6582 47.7638 24.7976 47.5458 25.0186C47.3279 25.2395 47.1902 25.5456 47.1902 25.8789V27.3904C47.1902 27.9562 46.739 28.4174 46.1808 28.4174C45.6224 28.4174 45.1674 27.9562 45.1674 27.3904V25.8789C45.1674 24.9797 45.5306 24.162 46.1156 23.5691C46.7007 22.9761 47.5075 22.6079 48.3947 22.6079H55.1553C54.7807 21.9685 54.2797 21.4144 53.6869 20.9803C52.9604 20.4455 52.0925 20.0967 51.1553 19.9998C50.2376 20.492 49.1938 20.771 48.0887 20.771C46.98 20.7711 45.9361 20.4921 45.0185 19.9999V19.9999ZM52.1575 28.4214C51.599 28.4214 51.1479 27.9602 51.1479 27.3943C51.1479 26.8285 51.5991 26.3713 52.1575 26.3713H56.8647C57.423 26.3713 57.8742 26.8286 57.8742 27.3943C57.8742 27.9601 57.4229 28.4214 56.8647 28.4214H52.1575ZM12.2058 28.4214C11.6474 28.4214 11.1924 27.9602 11.1924 27.3943C11.1924 26.8285 11.6474 26.3713 12.2058 26.3713H16.9091C17.4675 26.3713 17.9225 26.8286 17.9225 27.3943C17.9225 27.9601 17.4675 28.4214 16.9091 28.4214H12.2058ZM20.6718 24.6582H8.44313C7.78174 24.6582 7.23865 25.2085 7.23865 25.8789V33.8276H21.8763V25.8789C21.8763 25.5456 21.7426 25.2395 21.5207 25.0186C21.3027 24.7978 21.0045 24.6582 20.6718 24.6582V24.6582ZM61.8318 43.2645H7.23865V63.0606C7.23865 63.6612 7.72805 64.1573 8.32091 64.1573H15.9953V61.5686C15.9953 61.0027 16.4503 60.5415 17.0086 60.5415H19.5402C19.7237 59.8322 19.9493 59.1503 20.2171 58.4914C20.4924 57.821 20.8098 57.1737 21.1693 56.5537L19.3797 54.74C18.9858 54.3408 18.9858 53.6897 19.3797 53.2905L23.4712 49.1399C23.8687 48.7408 24.5075 48.7408 24.9014 49.1399L26.6947 50.9575C27.3064 50.5932 27.9452 50.2677 28.6065 49.9886C29.253 49.7174 29.9299 49.4886 30.6296 49.3065V46.737C30.6296 46.1713 31.0808 45.714 31.639 45.714H37.4282C37.9865 45.714 38.4415 46.1713 38.4415 46.737V49.3065C39.1375 49.4886 39.8144 49.7172 40.4607 49.9886C41.1222 50.2677 41.7609 50.5932 42.3764 50.9575L44.166 49.1399C44.5599 48.7408 45.2024 48.7408 45.5961 49.1399L49.6877 53.2905C50.0853 53.6897 50.0853 54.3408 49.6877 54.74L47.8981 56.5537C48.2575 57.1739 48.5787 57.821 48.8502 58.4914C49.1218 59.1503 49.3473 59.8324 49.5271 60.5415H52.0625C52.6208 60.5415 53.0719 61.0027 53.0719 61.5686V64.1573H60.7502C61.3429 64.1573 61.8322 63.6613 61.8322 63.0606V43.2645H61.8318ZM18.018 64.1573H26.6446C26.7632 61.3126 29.352 57.9255 31.9064 57.0225C32.4339 56.8404 33.0075 57.1233 33.1873 57.6581C33.3708 58.1891 33.0879 58.7705 32.564 58.9564C30.8395 59.561 28.7784 62.2196 28.6713 64.1573H40.3952C40.2959 62.3048 38.078 59.5377 36.4261 58.9564C35.8985 58.7705 35.6194 58.1891 35.7991 57.6581C35.9825 57.1233 36.5561 56.8404 37.08 57.0225C39.5616 57.8985 42.3074 61.3941 42.422 64.1573H51.0486V62.5916H48.7275C48.2572 62.5916 47.8366 62.2545 47.741 61.7661C47.569 60.9135 47.3128 60.0802 46.9877 59.278C46.6628 58.4835 46.2651 57.7317 45.8101 57.0224C45.5081 56.6233 45.5385 56.0458 45.9019 55.6776L47.5423 54.015L44.8809 51.3177L43.2368 52.9803C42.9042 53.3174 42.3727 53.3833 41.9673 53.1081C41.2522 52.6314 40.4914 52.2167 39.6881 51.8796C38.9234 51.558 38.128 51.306 37.3134 51.1355C36.8088 51.0774 36.4186 50.6434 36.4186 50.1163V47.7639H32.6522V50.1163C32.6522 50.5929 32.3156 51.0192 31.8377 51.1163C30.9965 51.2906 30.1744 51.5464 29.379 51.8797C28.5987 52.2092 27.853 52.6083 27.1571 53.0734C26.7596 53.3795 26.1935 53.3485 25.8303 52.9804L24.186 51.3178L21.5247 54.0151L23.1688 55.6778C23.5091 56.0227 23.5589 56.5652 23.295 56.9682C22.8209 57.693 22.4155 58.4642 22.083 59.2781C21.7657 60.0532 21.5171 60.8593 21.345 61.6809C21.2914 62.1964 20.8631 62.5916 20.3393 62.5916H18.018V64.1573ZM65.9616 35.8777H3.10503C2.5123 35.8777 2.0229 36.3737 2.0229 36.9745V40.1175C2.0229 40.7183 2.51243 41.2143 3.10503 41.2143H65.9618C66.5545 41.2143 67.044 40.7183 67.044 40.1175V36.9745C67.0439 36.3739 66.5544 35.8777 65.9616 35.8777Z" fill="black"/>
</g>
<defs>
<clipPath id="clip0">
<rect width="69.0667" height="70" fill="white"/>
</clipPath>
</defs>
</svg>
