<svg width="70" height="70" viewBox="0 0 70 70" fill="none" xmlns="http://www.w3.org/2000/svg">
<path d="M64.3548 15.8065H63.2258V0H6.77419V15.8065H5.64516C2.53242 15.8065 0 18.3389 0 21.4516V57.5806C0 60.6934 2.53242 63.2258 5.64516 63.2258H21.4516V67.7419H18.0645V70H51.9355V67.7419H48.5484V63.2258H64.3548C67.4676 63.2258 70 60.6934 70 57.5806V21.4516C70 18.3389 67.4676 15.8065 64.3548 15.8065ZM9.03226 2.25806H60.9677V9.03226H9.03226V2.25806ZM9.03226 11.2903H60.9677V49.6774H54.1935V46.5432L49.866 45.4356C49.7023 44.9885 49.5148 44.5414 49.3048 44.0977L51.5866 40.2489L45.5564 34.2187L41.7076 36.5005C41.2627 36.2905 40.8156 36.1031 40.3697 35.9405L39.2632 31.6129H30.7356L29.6292 35.9405C29.1832 36.1042 28.7361 36.2916 28.2913 36.5005L24.4424 34.2187L18.4123 40.2489L20.694 44.0977C20.484 44.5414 20.2966 44.9885 20.1329 45.4356L15.8065 46.5432V49.6774H9.03226V11.2903ZM43.7444 49.6774H26.2647C27.2718 45.7879 30.8 42.9032 35 42.9032C37.6397 42.9032 40.1416 44.0548 41.8623 46.0611L43.5773 44.5923C41.4265 42.0835 38.3002 40.6452 35 40.6452C29.5479 40.6452 24.9866 44.5302 23.9377 49.6774H18.0645V48.2955L21.8931 47.3166L22.0816 46.7194C22.3074 46.0058 22.6089 45.2844 22.9792 44.5708L23.2682 44.0142L21.2484 40.6068L24.7992 37.0548L28.2066 39.0758L28.7632 38.7868C29.4768 38.4153 30.2005 38.1127 30.9129 37.8869L31.5102 37.6973L32.489 33.871H37.5098L38.4887 37.6984L39.086 37.8881C39.7984 38.1139 40.521 38.4165 41.2356 38.7879L41.7923 39.0769L45.1997 37.056L48.7505 40.6079L46.7306 44.0153L47.0197 44.5719C47.39 45.2855 47.6926 46.0069 47.9173 46.7205L48.1058 47.3177L51.9355 48.2955V49.6774H46.0442C45.8342 48.6477 45.4989 47.6452 45.0134 46.716L43.0127 47.7615C43.3334 48.3768 43.5739 49.0181 43.7444 49.6774ZM46.2903 67.7419H23.7097V63.2258H46.2903V67.7419ZM67.7419 57.5806C67.7419 59.4481 66.2223 60.9677 64.3548 60.9677H5.64516C3.77774 60.9677 2.25806 59.4481 2.25806 57.5806V56.4516H67.7419V57.5806ZM67.7419 54.1935H2.25806V21.4516C2.25806 19.5842 3.77774 18.0645 5.64516 18.0645H6.77419V51.9355H23.7097H25.9677H44.0323H46.2903H63.2258V18.0645H64.3548C66.2223 18.0645 67.7419 19.5842 67.7419 21.4516V54.1935Z" fill="black"/>
<path d="M41.2718 15.9961L40.0186 17.8748L45.3837 21.4516L40.0186 25.0284L41.2718 26.9071L49.455 21.4516L41.2718 15.9961Z" fill="black"/>
<path d="M29.9814 17.8748L28.7281 15.9961L20.5449 21.4516L28.7281 26.9071L29.9814 25.0284L24.6162 21.4516L29.9814 17.8748Z" fill="black"/>
<path d="M36.1869 14.3255L31.6685 27.8722L33.8105 28.5866L38.3289 15.04L36.1869 14.3255Z" fill="black"/>
<path d="M22.5808 4.51614H20.3228V6.77421H22.5808V4.51614Z" fill="black"/>
<path d="M18.0647 4.51614H15.8066V6.77421H18.0647V4.51614Z" fill="black"/>
<path d="M13.5486 4.51614H11.2905V6.77421H13.5486V4.51614Z" fill="black"/>
</svg>
