<svg width="261" height="402" viewBox="0 0 261 402" fill="none" xmlns="http://www.w3.org/2000/svg">
<path fill-rule="evenodd" clip-rule="evenodd" d="M193.071 114.976C198.835 76.4001 204.856 30.5124 206.15 0L223.52 0.770991C221.739 42.7722 215.305 84.6492 208.977 126.143C218.872 110.983 229.156 96.1017 238.905 80.8389L253.46 90.5676C243.187 106.652 232.268 122.288 221.938 138.331C200.915 170.98 224.934 166.712 258.706 173.43L255.388 190.889C238.442 187.519 216.851 186 201.195 174.605C200.503 178.703 199.805 182.8 199.088 186.893L199.025 187.251L199.024 187.255C199.024 187.255 198.372 187.142 181.914 184.094C185.952 161.11 189.621 138.059 193.071 114.976Z" fill="white"/>
<path d="M107.22 98.0639C105.358 110.829 96.2776 149.118 97.1979 161.085C98.8128 182.086 114.525 198.782 135.88 191.867C142.441 189.743 148.076 185.447 152.808 180.426C149.604 200.457 148.776 223.331 142.939 244.741C131.925 285.137 89.284 382.5 36.5872 383.268C5.62569 381.021 19.5422 315.186 23.6553 299.7C28.9552 279.748 42.9541 238.791 48.0929 228.282C36.7954 237.953 16.2658 289.701 10.4489 305.916C-10.4239 355.5 -3.09241 415.5 60.6634 395.412C114.211 369 143.736 305.94 158.849 250.507C172.513 200.392 177.074 140.202 178.415 108.573L159.385 105.826C157.104 122.771 158.189 157.221 146.135 168.971C134.128 181.7 115.883 177.268 114.531 159.69C113.785 149.992 120.327 113.225 122.205 100.352L107.22 98.0639Z" fill="white"/>
</svg>
